Coordinates
version=1
nRows=6
nColumns=63
inDegrees=yes

Units are S.I. units (second, meters, Newtons, ...)
If the header above contains a line with 'inDegrees', this indicates whether rotational values are in degrees (yes) or radians (no).

endheader
time	pelvis_tilt	pelvis_list	pelvis_rotation	pelvis_tx	pelvis_ty	pelvis_tz	hip_flexion_r	hip_adduction_r	hip_rotation_r	knee_angle_r	knee_angle_r_beta	ankle_angle_r	subtalar_angle_r	mtp_angle_r	hip_flexion_l	hip_adduction_l	hip_rotation_l	knee_angle_l	knee_angle_l_beta	ankle_angle_l	subtalar_angle_l	mtp_angle_l	L5_S1_Flex_Ext	L5_S1_Lat_Bending	L5_S1_axial_rotation	L4_L5_Flex_Ext	L4_L5_Lat_Bending	L4_L5_axial_rotation	L3_L4_Flex_Ext	L3_L4_Lat_Bending	L3_L4_axial_rotation	L2_L3_Flex_Ext	L2_L3_Lat_Bending	L2_L3_axial_rotation	L1_L2_Flex_Ext	L1_L2_Lat_Bending	L1_L2_axial_rotation	L1_T12_Flex_Ext	L1_T12_Lat_Bending	L1_T12_axial_rotation	Abs_r3	Abs_r2	Abs_r1	Abs_t1	Abs_t2	neck_flexion	neck_bending	neck_rotation	arm_flex_r	arm_add_r	arm_rot_r	elbow_flex_r	pro_sup_r	wrist_flex_r	wrist_dev_r	arm_flex_l	arm_add_l	arm_rot_l	elbow_flex_l	pro_sup_l	wrist_flex_l	wrist_dev_l
3.745763	-0.482251	-3.783804	81.907124	0.200731	0.878073	0.636150	2.683025	-1.315768	-3.216033	9.542133	0.166542	32.777737	17.053255	0.000000	0.422208	0.790448	9.552228	6.072731	0.105989	24.159653	-14.796194	0.000000	-0.128284	0.262600	0.744670	-0.238235	0.349257	0.791212	-0.210757	0.638485	0.791212	-0.146615	0.638485	0.651586	-0.119124	0.535493	0.605044	-0.073301	0.406767	0.558502	-0.916317	2.970579	4.141631	0.000000	0.000000	27.216698	-4.534474	-1.353393	6.092917	-11.823635	117.869274	6.999267	3.133674	-0.169572	-8.929695	6.917128	-9.311483	118.255173	11.247520	5.111922	-5.691911	-12.408808
3.762712	-0.383622	-3.807040	81.908660	0.200625	0.878085	0.636090	2.701818	-1.214548	-3.329010	9.516207	0.166089	32.741925	17.089447	0.000000	0.437596	0.690850	9.490242	6.110271	0.106644	24.107990	-14.764780	0.000000	-0.127453	0.277340	0.736498	-0.236692	0.368863	0.782529	-0.209392	0.674325	0.782529	-0.145666	0.674325	0.644435	-0.118352	0.565552	0.598404	-0.072826	0.429600	0.552373	-0.910381	3.137329	4.096179	0.000000	0.000000	27.243969	-4.645828	-1.250726	6.090554	-11.882248	117.868724	7.049208	3.190314	-0.238741	-8.921976	6.866329	-9.279490	117.808778	11.295951	5.213722	-5.668970	-12.417839
3.779661	-0.312556	-3.824684	81.903650	0.200520	0.878120	0.636054	2.719761	-1.145020	-3.411095	9.498305	0.165777	32.693573	17.110755	0.000000	0.455301	0.622858	9.388547	6.171939	0.107721	24.005022	-14.768197	0.000000	-0.127081	0.288809	0.734218	-0.236003	0.384116	0.780107	-0.208782	0.702209	0.780107	-0.145241	0.702209	0.642441	-0.118008	0.588939	0.596552	-0.072614	0.447365	0.550663	-0.907730	3.267061	4.083500	0.000000	0.000000	27.266224	-4.754406	-1.130324	6.070733	-11.931726	117.858215	7.100107	3.215802	-0.364298	-8.958570	6.847350	-9.245599	117.555740	11.323054	5.195284	-5.643932	-12.507587
3.796610	-0.269640	-3.832522	81.895500	0.200423	0.878178	0.636041	2.731355	-1.107891	-3.466005	9.489118	0.165616	32.635313	17.118394	0.000000	0.469848	0.588262	9.271324	6.253430	0.109143	23.861952	-14.821888	0.000000	-0.127611	0.296516	0.735127	-0.236986	0.394367	0.781073	-0.209652	0.720950	0.781073	-0.145846	0.720950	0.643236	-0.118499	0.604656	0.597291	-0.072917	0.459304	0.551345	-0.911511	3.354251	4.088557	0.000000	0.000000	27.289200	-4.841129	-0.973109	6.041717	-11.970921	117.799884	7.155958	3.243268	-0.532168	-9.026477	6.844282	-9.232922	117.241509	11.366571	5.235624	-5.636454	-12.657068
3.813559	-0.254624	-3.832698	81.891139	0.200329	0.878247	0.636035	2.734528	-1.101926	-3.498296	9.483186	0.165513	32.571858	17.114216	0.000000	0.477093	0.586382	9.165945	6.339344	0.110642	23.683006	-14.931909	0.000000	-0.128102	0.300487	0.736540	-0.237898	0.399648	0.782574	-0.210459	0.730605	0.782574	-0.146408	0.730605	0.644473	-0.118956	0.612754	0.598439	-0.073198	0.465455	0.552405	-0.915021	3.399173	4.096415	0.000000	0.000000	27.308965	-4.878435	-0.761217	6.006397	-11.996008	117.753477	7.204421	3.251584	-0.724896	-9.124323	6.854281	-9.228568	117.026889	11.394148	5.265460	-5.644194	-12.858650
3.830508	-0.266741	-3.818646	81.863945	0.200285	0.878324	0.636055	2.733562	-1.125975	-3.489801	9.493903	0.165700	32.508217	17.103469	0.000000	0.471384	0.615571	9.016710	6.430649	0.112236	23.495565	-15.037224	0.000000	-0.129861	0.300496	0.743590	-0.241165	0.399659	0.790064	-0.213349	0.730625	0.790064	-0.148418	0.730625	0.650641	-0.120589	0.612771	0.604167	-0.074203	0.465468	0.557692	-0.927584	3.399267	4.135622	0.000000	0.000000	27.321765	-4.877689	-0.518532	5.970265	-12.010246	117.637043	7.255424	3.275113	-0.917323	-9.217863	6.872290	-9.253010	116.682628	11.451971	5.417305	-5.697385	-13.084127
